<svg id="Layer_1" data-name="Layer 1" xmlns="http://www.w3.org/2000/svg" viewBox="0 0 1900 1250"><defs><style>.cls-1{fill:none;stroke:#ba2f5b;stroke-miterlimit:10;stroke-width:7px;}</style></defs><title>bg</title><path class="cls-1" d="M141.83,892.76,37.13,953.21a47.48,47.48,0,0,0-23.74,41.12v120.9a47.48,47.48,0,0,0,23.74,41.12l104.7,60.45a47.51,47.51,0,0,0,47.49,0L294,1156.35a47.48,47.48,0,0,0,23.74-41.12V994.33A47.48,47.48,0,0,0,294,953.21l-104.7-60.45A47.51,47.51,0,0,0,141.83,892.76Z"/><path class="cls-1" d="M-23.74,606l-104.7,60.45a47.47,47.47,0,0,0-23.74,41.12v120.9a47.5,47.5,0,0,0,23.74,41.12L-23.74,930a47.49,47.49,0,0,0,47.48,0l104.7-60.45a47.5,47.5,0,0,0,23.74-41.12V707.55a47.47,47.47,0,0,0-23.74-41.12L23.74,606A47.44,47.44,0,0,0-23.74,606Z"/><path class="cls-1" d="M305.57,1181.4l-104.7,60.45A47.47,47.47,0,0,0,177.13,1283v120.9A47.5,47.5,0,0,0,200.87,1445l104.7,60.45a47.51,47.51,0,0,0,47.49,0L457.76,1445a47.5,47.5,0,0,0,23.74-41.12V1283a47.47,47.47,0,0,0-23.74-41.12l-104.7-60.45A47.46,47.46,0,0,0,305.57,1181.4Z"/><path class="cls-1" d="M1711.57,30,1606.86,90.49a47.47,47.47,0,0,0-23.74,41.12v120.9a47.5,47.5,0,0,0,23.74,41.12l104.71,60.45a47.49,47.49,0,0,0,47.48,0l104.7-60.45a47.5,47.5,0,0,0,23.74-41.12V131.61a47.47,47.47,0,0,0-23.74-41.12L1759.05,30A47.49,47.49,0,0,0,1711.57,30Z"/><path class="cls-1" d="M1876.26,315.29l-104.7,60.45a47.48,47.48,0,0,0-23.74,41.12v120.9a47.48,47.48,0,0,0,23.74,41.12l104.7,60.45a47.49,47.49,0,0,0,47.48,0l104.7-60.45a47.48,47.48,0,0,0,23.74-41.12V416.86a47.48,47.48,0,0,0-23.74-41.12l-104.7-60.45A47.49,47.49,0,0,0,1876.26,315.29Z"/><path class="cls-1" d="M1546.86-256.93l-104.7,60.45a47.47,47.47,0,0,0-23.74,41.12v120.9a47.48,47.48,0,0,0,23.74,41.12l104.7,60.45a47.49,47.49,0,0,0,47.48,0L1699.05,6.66a47.48,47.48,0,0,0,23.74-41.12v-120.9a47.47,47.47,0,0,0-23.74-41.12l-104.71-60.45A47.49,47.49,0,0,0,1546.86-256.93Z"/><path class="cls-1" d="M1876.26-261.28l-104.7,60.45a47.48,47.48,0,0,0-23.74,41.12v120.9a47.48,47.48,0,0,0,23.74,41.12l104.7,60.45a47.49,47.49,0,0,0,47.48,0l104.7-60.45a47.48,47.48,0,0,0,23.74-41.12v-120.9a47.48,47.48,0,0,0-23.74-41.12l-104.7-60.45A47.49,47.49,0,0,0,1876.26-261.28Z"/><path class="cls-1" d="M-23.74,1181.4l-104.7,60.45A47.47,47.47,0,0,0-152.18,1283v120.9A47.5,47.5,0,0,0-128.44,1445l104.7,60.45a47.49,47.49,0,0,0,47.48,0L128.44,1445a47.5,47.5,0,0,0,23.74-41.12V1283a47.47,47.47,0,0,0-23.74-41.12L23.74,1181.4A47.44,47.44,0,0,0-23.74,1181.4Z"/><path class="cls-1" d="M470.55,892.76l-104.7,60.45a47.48,47.48,0,0,0-23.74,41.12v120.9a47.48,47.48,0,0,0,23.74,41.12l104.7,60.45a47.49,47.49,0,0,0,47.48,0l104.71-60.45a47.48,47.48,0,0,0,23.74-41.12V994.33a47.48,47.48,0,0,0-23.74-41.12L518,892.76A47.49,47.49,0,0,0,470.55,892.76Z"/></svg>